<?xml version="1.0" standalone="no"?>
<!DOCTYPE svg PUBLIC "-//W3C//DTD SVG 20010904//EN"
 "http://www.w3.org/TR/2001/REC-SVG-20010904/DTD/svg10.dtd">
<svg version="1.0" xmlns="http://www.w3.org/2000/svg"
 width="200.000000pt" height="200.000000pt" viewBox="0 0 200.000000 200.000000"
 preserveAspectRatio="xMidYMid meet">
<metadata>
Created by potrace 1.14, written by Peter Selinger 2001-2017
</metadata>
<g transform="translate(0.000000,200.000000) scale(0.100000,-0.100000)"
fill="#000000" stroke="none">
<path d="M515 1766 c-58 -62 -70 -117 -70 -316 1 -142 4 -183 18 -220 17 -42
52 -90 68 -90 3 0 12 20 18 44 6 24 20 65 31 90 l20 47 37 -25 c50 -33 132
-50 210 -43 79 8 99 18 112 60 9 26 8 43 -4 76 -21 60 -19 80 10 93 19 9 29 8
49 -6 44 -28 61 -73 61 -161 0 -101 -25 -155 -125 -274 -39 -46 -80 -102 -92
-125 -11 -22 -32 -55 -45 -73 -48 -62 -89 -216 -66 -245 6 -7 13 -30 16 -52 3
-21 13 -47 22 -57 16 -16 15 -19 -13 -33 -42 -22 -90 -80 -97 -120 -10 -53 3
-94 45 -136 108 -108 337 -84 401 41 31 61 22 119 -28 171 -24 26 -25 26 -4
33 11 3 34 20 51 36 25 26 30 38 30 81 0 43 -4 54 -33 83 -19 19 -47 37 -63
40 -51 12 -54 14 -54 47 0 29 5 35 43 51 65 26 201 139 252 209 25 33 67 76
93 94 74 53 166 149 198 207 24 44 29 63 29 122 -1 247 -246 370 -665 333 -80
-7 -186 -13 -237 -13 -87 0 -94 1 -138 33 l-47 33 -33 -35z"/>
</g>
</svg>
